<?xml version="1.0" encoding="UTF-8" standalone="no"?>
<!-- Created with Inkscape (http://www.inkscape.org/) -->

<svg
   xmlns:dc="http://purl.org/dc/elements/1.1/"
   xmlns:cc="http://creativecommons.org/ns#"
   xmlns:rdf="http://www.w3.org/1999/02/22-rdf-syntax-ns#"
   xmlns:svg="http://www.w3.org/2000/svg"
   xmlns="http://www.w3.org/2000/svg"
   xmlns:sodipodi="http://sodipodi.sourceforge.net/DTD/sodipodi-0.dtd"
   xmlns:inkscape="http://www.inkscape.org/namespaces/inkscape"
   version="1.1"
   id="svg2"
   xml:space="preserve"
   width="533.4267"
   height="500.77332"
   viewBox="0 0 533.4267 500.77332"
   sodipodi:docname="logo.svg"
   inkscape:version="0.92.3 (2405546, 2018-03-11)"><metadata
     id="metadata8"><rdf:RDF><cc:Work
         rdf:about=""><dc:format>image/svg+xml</dc:format><dc:type
           rdf:resource="http://purl.org/dc/dcmitype/StillImage" /><dc:title></dc:title></cc:Work></rdf:RDF></metadata><defs
     id="defs6">
</defs><sodipodi:namedview
     pagecolor="#ffffff"
     bordercolor="#666666"
     borderopacity="1"
     objecttolerance="10"
     gridtolerance="10"
     guidetolerance="10"
     inkscape:pageopacity="0"
     inkscape:pageshadow="2"
     inkscape:window-width="1366"
     inkscape:window-height="713"
     id="namedview4"
     showgrid="false"
     inkscape:zoom="0.60707639"
     inkscape:cx="478.3996"
     inkscape:cy="342.38775"
     inkscape:window-x="0"
     inkscape:window-y="0"
     inkscape:window-maximized="1"
     inkscape:current-layer="g10" /><g
     id="g10"
     inkscape:groupmode="layer"
     inkscape:label="ink_ext_XXXXXX"
     transform="matrix(1.3333333,0,0,-1.3333333,0,500.77333)"><g
       id="g327"
       transform="matrix(1.115516,0,0,1.115516,-16.956745,-64.447263)"><g
         transform="translate(714.69705,25.944019)"
         id="g1012"><path
           inkscape:connector-curvature="0"
           id="path142"
           style="fill:#e3e3e2;fill-opacity:1;fill-rule:nonzero;stroke:none;stroke-width:0.1"
           d="m -679.97726,292.52867 c 0.026,0.018 0.285,-0.301 0.731,-0.893 0.492,-0.671 1.115,-1.519 1.857,-2.532 1.552,-2.149 3.67,-5.136 5.987,-8.451 2.317,-3.316 4.393,-6.332 5.878,-8.528 0.696,-1.046 1.279,-1.922 1.739,-2.614 0.402,-0.623 0.613,-0.976 0.587,-0.994 -0.026,-0.018 -0.284,0.301 -0.731,0.893 -0.492,0.67 -1.115,1.519 -1.857,2.532 -1.552,2.149 -3.67,5.136 -5.987,8.452 -2.316,3.315 -4.393,6.331 -5.878,8.527 -0.696,1.045 -1.279,1.922 -1.739,2.614 -0.402,0.623 -0.612,0.976 -0.587,0.994" /><path
           inkscape:connector-curvature="0"
           id="path252"
           style="fill:#f8f8f9;fill-opacity:1;fill-rule:nonzero;stroke:none;stroke-width:0.1"
           d="m -696.24426,191.77767 0.765,-25.466 17.972,1.01 0.057,-0.998 -17.999,-1.012 0.915,-30.4811 16.992,1.075 0.126,-1.9957 -17.058,-1.0793 0.455,-15.1559 h 16.559 l 0.36,84.988 -16.937,-1.709 -2.207,-9.176" /><path
           inkscape:connector-curvature="0"
           id="path268"
           style="fill:#f8f8f9;fill-opacity:1;fill-rule:nonzero;stroke:none;stroke-width:0.1"
           d="m -688.44326,224.21167 -5.346,-22.227 16.693,1.684 0.099,23.309 c -5.123,1.348 -9.593,2.448 -11.996,2.911 l 0.55,-5.677" /><path
           inkscape:connector-curvature="0"
           id="path272"
           style="fill:#f8f8f9;fill-opacity:1;fill-rule:nonzero;stroke:none;stroke-width:0.1"
           d="m -689.28826,232.94167 c 1.869,-0.283 5.412,-1.036 12.304,-2.847 l 0.215,50.965 -17.02,-1.637 4.501,-46.481" /><path
           inkscape:connector-curvature="0"
           id="path408"
           style="fill:#f9ad95;fill-opacity:1;fill-rule:nonzero;stroke:none;stroke-width:0.1"
           d="m -471.85226,260.99067 c 0,0 16.135,-2.725 17.434,-3.072 1.299,-0.346 6.408,-2.77 6.668,-4.33 0.26,-1.559 0,-6.148 0,-6.148 0,0 -0.923,-0.753 -1.501,0.749 -0.577,1.503 -0.491,4.473 -0.491,4.473 l -2.858,1.1 1.559,-2.772 0.26,-6.495 c 0,0 -1.996,0.183 -2.384,1.738 -0.387,1.553 -0.381,3.286 -0.381,3.286 l -2.085,1.765 1.56,-2.112 0.525,-4.677 c 0,0 -1.522,-0.491 -2,0.547 -0.478,1.037 -0.518,4.13 -0.518,4.13 l -5.878,2.054 -3.895,-2.168 -7.273,4.112 1.258,7.82" /><path
           inkscape:connector-curvature="0"
           id="path410"
           style="fill:#f03658;fill-opacity:1;fill-rule:nonzero;stroke:none;stroke-width:0.1"
           d="m -528.32326,300.86267 c 0.073,-0.319 19.438,-26.976 19.438,-26.976 l 38.9,-12.098 -1.771,-14.611 -47.676,9.599 -16.92,19.418 8.029,24.668" /><path
           inkscape:connector-curvature="0"
           id="path412"
           style="fill:#d82b43;fill-opacity:1;fill-rule:nonzero;stroke:none;stroke-width:0.1"
           d="m -471.75626,247.17767 -10.064,2.026 c 0.065,0.608 0.13,1.219 0.195,1.83 0.101,0.962 0.203,1.921 0.298,2.808 l 0.022,0.219 -0.211,0.059 c -15.291,4.324 -29.77,8.418 -42.606,12.047 l -3.656,32.561 c -0.025,0.619 -0.174,1.275 -0.431,1.951 1.594,-2.386 19.324,-26.792 19.324,-26.792 l 38.9,-12.098 -0.132,-1.092 -1.046,-8.627 -0.593,-4.892" /><path
           inkscape:connector-curvature="0"
           id="path414"
           style="fill:#f8f8f9;fill-opacity:1;fill-rule:nonzero;stroke:none;stroke-width:0.1"
           d="m -596.08126,248.68067 h -79.483 c -1.684,0 -3.048,1.364 -3.048,3.048 v 9.394 c 0,1.684 1.364,3.049 3.048,3.049 h 79.483 c 1.683,0 3.049,-1.365 3.049,-3.049 v -9.394 c 0,-1.684 -1.366,-3.048 -3.049,-3.048" /><path
           inkscape:connector-curvature="0"
           id="path416"
           style="fill:#1d2a30;fill-opacity:1;fill-rule:nonzero;stroke:none;stroke-width:0.1"
           d="m -596.08126,248.68067 c -10e-4,0.017 0.174,0.007 0.502,0.071 0.321,0.067 0.817,0.2 1.324,0.607 0.501,0.391 1.017,1.081 1.122,2.019 0.037,0.94 -0.003,2.061 -0.001,3.301 -0.007,1.248 -0.014,2.633 -0.023,4.146 -0.004,0.757 -0.009,1.547 -0.014,2.368 -0.016,0.786 -0.382,1.59 -1.026,2.136 -0.32,0.276 -0.709,0.478 -1.129,0.589 -0.418,0.12 -0.866,0.098 -1.347,0.098 -0.944,-0.004 -1.919,-0.007 -2.922,-0.01 -2.008,-0.006 -4.128,-0.012 -6.354,-0.019 -17.835,-0.019 -42.438,-0.046 -69.611,-0.076 -0.781,0.006 -1.546,-0.34 -2.064,-0.914 -0.529,-0.58 -0.776,-1.336 -0.728,-2.149 -10e-4,-1.679 -10e-4,-3.346 -10e-4,-5.001 -10e-4,-0.827 -10e-4,-1.653 -10e-4,-2.474 l -0.001,-1.229 c -0.003,-0.423 -0.002,-0.784 0.101,-1.148 0.191,-0.72 0.689,-1.35 1.337,-1.709 0.323,-0.18 0.682,-0.294 1.049,-0.333 0.351,-0.032 0.784,-0.012 1.176,-0.018 6.409,-0.005 12.592,-0.01 18.482,-0.015 11.775,-0.021 22.381,-0.04 31.295,-0.057 8.892,-0.034 16.095,-0.062 21.099,-0.082 2.472,-0.021 4.401,-0.038 5.735,-0.048 0.639,-0.012 1.135,-0.021 1.492,-0.027 0.336,-0.009 0.508,-0.026 0.508,-0.026 0,0 -0.172,-0.018 -0.508,-0.027 -0.357,-0.006 -0.853,-0.015 -1.492,-0.026 -1.334,-0.012 -3.263,-0.027 -5.735,-0.049 -5.004,-0.019 -12.207,-0.048 -21.099,-0.083 -8.914,-0.015 -19.52,-0.034 -31.295,-0.055 -5.89,-0.005 -12.073,-0.01 -18.482,-0.015 -0.41,0.007 -0.781,-0.018 -1.231,0.019 -0.434,0.046 -0.86,0.181 -1.243,0.394 -0.768,0.424 -1.356,1.167 -1.585,2.022 -0.124,0.424 -0.124,0.89 -0.119,1.283 l -10e-4,1.229 c 0,0.821 0,1.647 0,2.474 -10e-4,1.655 -10e-4,3.322 -10e-4,5.001 -0.058,0.86 0.235,1.835 0.864,2.5 0.612,0.68 1.525,1.091 2.448,1.084 27.173,-0.03 51.776,-0.057 69.611,-0.076 2.226,-0.007 4.346,-0.013 6.354,-0.019 1.003,-0.003 1.978,-0.007 2.922,-0.01 0.462,-0.003 0.958,0.018 1.425,-0.118 0.463,-0.126 0.892,-0.352 1.239,-0.658 0.705,-0.606 1.098,-1.494 1.108,-2.352 -0.002,-0.823 -0.005,-1.615 -0.007,-2.374 -0.009,-1.513 -0.017,-2.898 -0.024,-4.146 -0.017,-1.249 0.008,-2.344 -0.047,-3.319 -0.128,-0.986 -0.683,-1.693 -1.211,-2.085 -0.536,-0.406 -1.05,-0.525 -1.38,-0.576 -0.336,-0.047 -0.511,-0.018 -0.511,-0.018" /><path
           inkscape:connector-curvature="0"
           id="path418"
           style="fill:#1d2a30;fill-opacity:1;fill-rule:nonzero;stroke:none;stroke-width:0.1"
           d="m -423.11726,92.172769 c -0.327,-22.5789 17.715,-41.146897 40.294,-41.47424 22.58,-0.325001 41.148,17.71524 41.474,40.29534 0.326,22.578901 -17.715,41.147601 -40.295,41.473801 -22.579,0.325 -41.148,-17.7148 -41.473,-40.294901" /><path
           inkscape:connector-curvature="0"
           id="path420"
           style="fill:#1d2a30;fill-opacity:1;fill-rule:nonzero;stroke:none;stroke-width:0.1"
           d="m -423.11026,92.277869 -0.007,-0.1051 c -0.326,-22.5789 17.715,-41.146897 40.294,-41.47424 22.58,-0.325001 41.148,17.71524 41.474,40.29534 l -0.004,0.1058 -81.757,1.1782" /><path
           inkscape:connector-curvature="0"
           id="path422"
           style="fill:#fcfdfd;fill-opacity:1;fill-rule:nonzero;stroke:none;stroke-width:0.1"
           d="m -410.93726,91.996569 c -0.228,-15.8519 12.437,-28.8879 28.289,-29.1168 15.854,-0.2281 28.89,12.4371 29.119,28.2899 0.228,15.851901 -12.437,28.889001 -28.29,29.117101 -15.853,0.2289 -28.889,-12.4371 -29.118,-28.290201" /><path
           inkscape:connector-curvature="0"
           id="path424"
           style="fill:#e3e3e2;fill-opacity:1;fill-rule:nonzero;stroke:none;stroke-width:0.1"
           d="m -381.81926,120.28677 c -15.853,0.2289 -28.889,-12.4371 -29.118,-28.290201 l 57.408,-0.8269 c 0.228,15.851901 -12.437,28.889001 -28.29,29.117101" /><path
           inkscape:connector-curvature="0"
           id="path426"
           style="fill:#1d2a30;fill-opacity:1;fill-rule:nonzero;stroke:none;stroke-width:0.1"
           d="m -399.71826,91.835669 c -0.139,-9.6571 7.576,-17.5981 17.233,-17.7371 9.656,-0.1399 17.598,7.5761 17.737,17.232 0.14,9.657001 -7.576,17.598001 -17.233,17.738301 -9.656,0.1386 -17.597,-7.5774 -17.737,-17.233201" /><path
           inkscape:connector-curvature="0"
           id="path428"
           style="fill:#f03658;fill-opacity:1;fill-rule:nonzero;stroke:none;stroke-width:0.1"
           d="m -401.64226,151.53667 c 0,0 41.865,12.662 59.178,-32.819 l -87.603,-27.134001 28.425,59.953001" /><path
           inkscape:connector-curvature="0"
           id="path430"
           style="fill:#1d2a30;fill-opacity:1;fill-rule:nonzero;stroke:none;stroke-width:0.1"
           d="m -675.40426,92.172769 c -0.326,-22.5789 17.715,-41.146897 40.295,-41.47424 22.579,-0.325001 41.148,17.71524 41.473,40.29534 0.326,22.578901 -17.715,41.147601 -40.295,41.473801 -22.579,0.325 -41.148,-17.7148 -41.473,-40.294901" /><path
           inkscape:connector-curvature="0"
           id="path432"
           style="fill:#1d2a30;fill-opacity:1;fill-rule:nonzero;stroke:none;stroke-width:0.1"
           d="m -675.39726,92.277869 -0.007,-0.1051 c -0.326,-22.5789 17.715,-41.146897 40.295,-41.47424 22.579,-0.325001 41.148,17.71524 41.473,40.29534 l -0.004,0.1058 -81.757,1.1782" /><path
           inkscape:connector-curvature="0"
           id="path434"
           style="fill:#fcfdfd;fill-opacity:1;fill-rule:nonzero;stroke:none;stroke-width:0.1"
           d="m -663.22326,91.996569 c -0.229,-15.8519 12.437,-28.8879 28.288,-29.1168 15.854,-0.2281 28.89,12.4371 29.118,28.2899 0.229,15.851901 -12.436,28.889001 -28.289,29.117101 -15.853,0.2289 -28.889,-12.4371 -29.117,-28.290201" /><path
           inkscape:connector-curvature="0"
           id="path436"
           style="fill:#e3e3e2;fill-opacity:1;fill-rule:nonzero;stroke:none;stroke-width:0.1"
           d="m -634.10626,120.28677 c -15.853,0.2289 -28.889,-12.4371 -29.117,-28.290201 l 57.406,-0.8269 c 0.229,15.851901 -12.436,28.889001 -28.289,29.117101" /><path
           inkscape:connector-curvature="0"
           id="path438"
           style="fill:#1d2a30;fill-opacity:1;fill-rule:nonzero;stroke:none;stroke-width:0.1"
           d="m -652.00426,91.835669 c -0.14,-9.6571 7.575,-17.5981 17.231,-17.7371 9.658,-0.1399 17.599,7.5761 17.738,17.232 0.139,9.657001 -7.576,17.598001 -17.233,17.738301 -9.656,0.1386 -17.597,-7.5774 -17.736,-17.233201" /><path
           inkscape:connector-curvature="0"
           id="path440"
           style="fill:#365462;fill-opacity:1;fill-rule:nonzero;stroke:none;stroke-width:0.1"
           d="m -576.36126,107.99777 c -0.228,-0.1153 -21.518,3.2918 -21.518,3.2918 -2.333,-3.0399 -5.886,-4.9 -9.713,-5.084 -9.195,-0.4399 -18.189,-0.8449 -25.976,-1.193 -7.264,-0.325 -12.891,-6.467901 -12.584,-13.732801 v -0.0109 c 0.29,-6.8672 5.801,-12.3641 12.669,-12.634 l 45.281,-1.782 c 7.444,-0.2942 17.344,4.232 21.992,10.0546 l -10.151,21.090301" /><path
           inkscape:connector-curvature="0"
           id="path442"
           style="fill:#f03658;fill-opacity:1;fill-rule:nonzero;stroke:none;stroke-width:0.1"
           d="m -687.60226,126.09267 c 0,0 -1.948,39.848 35.5,48.15 v 5.109 h 131.189 v -12.182 c 0,0 -19.255,-23.186 -12.968,-42.4411 6.288,-19.255 8.253,-21.2199 8.253,-21.2199 h 74.664 c 0,0 9.038,11.3949 9.432,28.2942 0.392,16.8968 -6.629,45.7918 -11.87,64.2618 -4.766,16.794 -7.78,30.837 -7.78,30.837 l 22.4,7.465 c 0,0 41.447,-54.192 43.139,-57.239 1.694,-3.048 7.45,-10.158 6.095,-25.733 -1.354,-15.5758 -38.6,-63.657101 -48.419,-69.075001 -9.819,-5.4168 -18.623,-5.7551 -27.427,-7.1098 -7.641,-1.1762 -64.166,-0.3981 -78.951,-0.1731 -5.135,0.0789 -10.206,1.3911 -14.597,4.0539 -4.421,2.6821 -7.747,7.1168 -11.416,14.4032 l -7.788,15.237901 -109.456,17.3609" /><path
           inkscape:connector-curvature="0"
           id="path444"
           style="fill:#365462;fill-opacity:1;fill-rule:nonzero;stroke:none;stroke-width:0.1"
           d="m -677.56326,128.86457 -16.526,-25.8809 c -2.115,-3.314001 1.308,-7.482801 4.915,-5.919901 1.749,0.757 3.632,1.943 5.543,3.759001 7.558,7.1898 21.028,26.1289 21.028,26.1289 l -14.96,1.9129" /><path
           inkscape:connector-curvature="0"
           id="path446"
           style="fill:#1d2a30;fill-opacity:1;fill-rule:nonzero;stroke:none;stroke-width:0.1"
           d="m -559.07326,124.20357 c -0.008,0.003 0.025,0.1313 0.097,0.377 0.082,0.2703 0.192,0.6293 0.332,1.0871 0.282,0.957 0.621,2.3941 0.866,4.2711 0.421,3.7238 0.229,9.416 -2.557,15.6187 -1.358,3.0934 -3.37,6.2542 -6.088,9.1542 -2.731,2.879 -6.104,5.541 -10.042,7.66 -3.924,2.135 -8.354,3.812 -13.103,4.877 -4.75,1.066 -9.8,1.547 -14.966,1.547 -5.172,0.002 -10.215,-0.458 -15.052,-1.104 -4.839,-0.652 -9.485,-1.454 -13.856,-2.452 -8.75,-1.966 -16.365,-4.878 -22.253,-8.233 -5.91,-3.334 -10.1,-6.971 -12.717,-9.7031 -1.319,-1.3617 -2.265,-2.4937 -2.898,-3.2668 -0.299,-0.375 -0.534,-0.6691 -0.71,-0.8882 -0.162,-0.1989 -0.249,-0.2977 -0.256,-0.2918 0,0 1.116,1.7988 3.717,4.5859 2.583,2.7871 6.76,6.489 12.681,9.883 5.9,3.417 13.548,6.382 22.328,8.382 4.387,1.015 9.044,1.829 13.896,2.49 4.851,0.655 9.917,1.121 15.12,1.119 5.198,0 10.286,-0.488 15.078,-1.57 4.791,-1.083 9.263,-2.785 13.223,-4.954 3.971,-2.153 7.376,-4.859 10.126,-7.786 2.738,-2.949 4.757,-6.164 6.109,-9.3011 2.773,-6.2918 2.907,-12.0469 2.421,-15.793 -0.279,-1.8867 -0.651,-3.3238 -0.966,-4.275 -0.161,-0.4527 -0.288,-0.809 -0.383,-1.0738 -0.089,-0.2422 -0.138,-0.3629 -0.147,-0.3602" /><path
           inkscape:connector-curvature="0"
           id="path448"
           style="fill:#f8f8f9;fill-opacity:1;fill-rule:nonzero;stroke:none;stroke-width:0.1"
           d="m -566.63126,133.15087 c -0.057,0.0219 0.219,0.6289 0.495,1.7738 0.308,1.1379 0.439,2.8711 0.149,4.9539 -0.286,2.086 -1.089,4.5051 -2.437,6.9461 -0.661,1.2282 -1.474,2.452 -2.418,3.6379 -0.931,1.1971 -2.024,2.3361 -3.251,3.3671 -2.466,2.07 -5.214,3.529 -7.803,4.564 -2.607,1.008 -5.068,1.611 -7.159,1.956 -2.091,0.348 -3.805,0.496 -4.991,0.567 -1.186,0.073 -1.845,0.101 -1.845,0.142 0,0.017 0.165,0.033 0.479,0.045 0.313,0.006 0.777,0.033 1.374,0.015 1.193,-0.009 2.924,-0.1 5.041,-0.406 2.117,-0.301 4.618,-0.873 7.275,-1.872 2.64,-1.027 5.443,-2.496 7.964,-4.611 1.258,-1.059 2.372,-2.225 3.316,-3.451 0.958,-1.213 1.778,-2.4669 2.439,-3.7251 1.352,-2.5007 2.135,-4.9847 2.381,-7.1257 0.25,-2.1383 0.057,-3.9102 -0.317,-5.0543 -0.119,-0.5911 -0.375,-0.9989 -0.476,-1.295 -0.126,-0.289 -0.199,-0.4347 -0.216,-0.4277" /><path
           inkscape:connector-curvature="0"
           id="path450"
           style="fill:#a02232;fill-opacity:1;fill-rule:nonzero;stroke:none;stroke-width:0.1"
           d="m -550.59326,121.56767 c -1.004,0.3781 -2.071,0.641 -3.187,0.7719 l -5.77,0.6652 c 0.171,0.3867 0.33,0.7879 0.479,1.2008 0.014,0.0141 0.063,0.1351 0.145,0.3582 0.095,0.2648 0.222,0.6211 0.383,1.0738 0.315,0.9512 0.687,2.3883 0.966,4.275 0.486,3.7461 0.352,9.5012 -2.421,15.793 -1.352,3.1371 -3.371,6.3521 -6.109,9.3011 -2.75,2.927 -6.155,5.633 -10.126,7.786 -3.96,2.169 -8.432,3.871 -13.223,4.954 -0.449,0.101 -0.9,0.198 -1.354,0.289 12.473,-0.416 23.983,-5.955 32.44,-15.144 7.498,-8.147 10.896,-20.9189 7.777,-31.324" /><path
           inkscape:connector-curvature="0"
           id="path452"
           style="fill:#16191b;fill-opacity:1;fill-rule:nonzero;stroke:none;stroke-width:0.1"
           d="m -559.07126,124.20557 c 2.012,5.5703 2.079,13.348 -0.263,19.3762 -2.617,6.7398 -7.219,12.4229 -13.233,16.4369 -6.014,4.014 -12.422,6.643 -19.755,8.042 0.506,0 1.009,-0.009 1.512,-0.025 0.454,-0.091 0.905,-0.188 1.354,-0.289 4.791,-1.083 9.263,-2.785 13.223,-4.954 3.971,-2.153 7.376,-4.859 10.126,-7.786 2.738,-2.949 4.757,-6.164 6.109,-9.3011 2.773,-6.2918 2.907,-12.0469 2.421,-15.793 -0.279,-1.8867 -0.651,-3.3238 -0.966,-4.275 -0.161,-0.4527 -0.288,-0.809 -0.383,-1.0738 -0.082,-0.2231 -0.131,-0.3441 -0.145,-0.3582" /><path
           inkscape:connector-curvature="0"
           id="path454"
           style="fill:#365462;fill-opacity:1;fill-rule:nonzero;stroke:none;stroke-width:0.1"
           d="m -595.27526,179.35167 h -81.094 c -4.738,0 -8.579,3.841 -8.579,8.579 v 52.954 c 0,4.738 3.841,8.579 8.579,8.579 h 81.094 c 4.738,0 8.579,-3.841 8.579,-8.579 v -52.954 c 0,-4.738 -3.841,-8.579 -8.579,-8.579" /><path
           inkscape:connector-curvature="0"
           id="path456"
           style="fill:#1d2a30;fill-opacity:1;fill-rule:nonzero;stroke:none;stroke-width:0.1"
           d="m -586.69626,233.81767 c 0,-0.144 -22.091,-0.261 -49.333,-0.261 -27.253,0 -49.339,0.117 -49.339,0.261 0,0.143 22.086,0.259 49.339,0.259 27.242,0 49.333,-0.116 49.333,-0.259" /><path
           inkscape:connector-curvature="0"
           id="path458"
           style="fill:#1d2a30;fill-opacity:1;fill-rule:nonzero;stroke:none;stroke-width:0.1"
           d="m -520.97826,174.70967 c 0,-0.143 -29.485,-0.261 -65.847,-0.261 -36.376,0 -65.855,0.118 -65.855,0.261 0,0.144 29.479,0.261 65.855,0.261 36.362,0 65.847,-0.117 65.847,-0.261" /><path
           inkscape:connector-curvature="0"
           id="path460"
           style="fill:#365462;fill-opacity:1;fill-rule:nonzero;stroke:none;stroke-width:0.1"
           d="m -520.91326,179.35167 c 0,0 2.164,2.582 2.371,5.877 0.207,3.295 -1.296,7.414 -4.841,7.414 h -45.3 c -7.34,0 -13.291,-5.95 -13.291,-13.291 h 61.061" /><path
           inkscape:connector-curvature="0"
           id="path462"
           style="fill:#f03658;fill-opacity:1;fill-rule:nonzero;stroke:none;stroke-width:0.1"
           d="m -461.18226,226.90167 -7.877,16.43 c -2.154,4.671 -0.436,10.215 3.982,12.85 l 23.556,14.052 c 1.233,0.734 2.64,1.122 4.075,1.122 h 5.09 l 2.039,-33.208 -7.853,-3.004 4.97,-8.084 -27.982,-0.158" /><path
           inkscape:connector-curvature="0"
           id="path464"
           style="fill:#eeeeee;fill-opacity:1;fill-rule:nonzero;stroke:none;stroke-width:0.1"
           d="m -432.28126,270.15067 c 0,0 8.059,-1.848 9.074,-14.274 1.015,-12.426 -7.109,-16.293 -7.109,-16.293 l -1.965,30.567" /><path
           inkscape:connector-curvature="0"
           id="path466"
           style="fill:#1d2a30;fill-opacity:1;fill-rule:nonzero;stroke:none;stroke-width:0.1"
           d="m -458.43626,249.76767 c 0,0 -16.294,-7.722 -18.282,-8.99 -1.379,-0.877 -2.564,-2.418 -1.481,-5.126 1.844,-4.616 9.464,-0.273 9.464,-0.273 l 15.164,7.581 c 0,0 5.831,2.753 3.678,6.196 -2.41,3.856 -8.543,0.612 -8.543,0.612" /><path
           inkscape:connector-curvature="0"
           id="path468"
           style="fill:#f9ad95;fill-opacity:1;fill-rule:nonzero;stroke:none;stroke-width:0.1"
           d="m -481.49426,252.58367 c 0,0 15.304,-2.624 16.603,-2.971 1.299,-0.345 6.409,-2.77 6.668,-4.33 0.26,-1.558 0,-6.148 0,-6.148 0,0 -0.923,-0.753 -1.501,0.75 -0.577,1.502 -0.491,4.473 -0.491,4.473 l -2.857,1.099 1.558,-2.771 0.26,-6.495 c 0,0 -1.996,0.182 -2.384,1.737 -0.387,1.554 -0.381,3.286 -0.381,3.286 l -2.085,1.766 1.559,-2.113 0.526,-4.676 c 0,0 -1.521,-0.492 -2,0.546 -0.478,1.038 -0.517,4.13 -0.517,4.13 l -5.879,2.054 -3.895,-2.168 -6.122,3.355 0.938,8.476" /><path
           inkscape:connector-curvature="0"
           id="path470"
           style="fill:#1d2a30;fill-opacity:1;fill-rule:nonzero;stroke:none;stroke-width:0.1"
           d="m -457.65626,273.89967 c 0,-6.196 -2.849,-11.218 -6.363,-11.218 -3.513,0 -6.362,5.022 -6.362,11.218 0,6.195 2.849,11.217 6.362,11.217 3.514,0 6.363,-5.022 6.363,-11.217" /><path
           inkscape:connector-curvature="0"
           id="path472"
           style="fill:#1d2a30;fill-opacity:1;fill-rule:nonzero;stroke:none;stroke-width:0.1"
           d="m -462.97326,266.18667 3.494,-12.112 c 1.561,0.792 1.887,2.347 1.627,3.576 -0.877,4.149 -1.372,7.103 -2.335,10.735 -0.117,0.369 -2.786,-2.199 -2.786,-2.199" /><path
           inkscape:connector-curvature="0"
           id="path474"
           style="fill:#969796;fill-opacity:1;fill-rule:nonzero;stroke:none;stroke-width:0.1"
           d="m -525.62826,103.50867 v 0 0 m 0,0 c -0.024,0.025 -1.648,1.7199 -6.586,16.216 0.02,-0.057 0.04,-0.114 0.06,-0.1711 4.89,-14.3339 6.502,-16.0199 6.526,-16.0449 m -7.562,19.1211 c -0.224,0.675 -0.455,1.375 -0.691,2.0988 -0.576,1.7641 -0.938,3.5621 -1.119,5.3711 0.121,-1.041 0.397,-2.8039 0.868,-4.516 0.267,-0.9691 0.632,-1.9801 0.942,-2.9539" /><path
           inkscape:connector-curvature="0"
           id="path476"
           style="fill:#a02232;fill-opacity:1;fill-rule:nonzero;stroke:none;stroke-width:0.1"
           d="m -477.04326,86.208669 c -12.117,0 -26.554,0.834 -39.39,1.8199 -15.465,1.1903 -24.47,18.102001 -18.573,42.120001 0.002,-0.0161 0.004,-0.0329 0.006,-0.0489 0.181,-1.809 0.543,-3.607 1.119,-5.3711 0.236,-0.7238 0.467,-1.4238 0.691,-2.0988 10e-4,-0.003 0.002,-0.005 0.002,-0.008 0.316,-0.9891 0.647,-1.9539 0.974,-2.8969 4.938,-14.4961 6.562,-16.191 6.586,-16.216 v 0 0 0 h 74.664 c 0,0 9.038,11.3949 9.432,28.2942 0.01,0.4617 0.016,0.9328 0.015,1.4128 -0.005,17.0571 -6.788,44.884 -11.885,62.849 -4.766,16.794 -7.78,30.837 -7.78,30.837 v 0 l 19.417,0.109 c 5.367,-9.929 16.818,-32.075 24.191,-53.248 9.9,-28.4341 -6.257,-57.9598 -8.034,-60.7528 -1.777,-2.793 -9.23,-19.725001 -29.54,-25.056301 -4.813,-1.2629 -12.683,-1.7449 -21.895,-1.7449" /><path
           inkscape:connector-curvature="0"
           id="path478"
           style="fill:#a02232;fill-opacity:1;fill-rule:nonzero;stroke:none;stroke-width:0.1"
           d="m -461.18226,226.90167 16.451,5.483 c 0,0 1.125,-1.968 2.966,-5.374 l -19.417,-0.109" /><path
           inkscape:connector-curvature="0"
           id="path480"
           style="fill:#f03658;fill-opacity:1;fill-rule:nonzero;stroke:none;stroke-width:0.1"
           d="m -690.58826,132.34267 0.526,5.6969 136.282,-15.7 c 7.691,-0.902 13.037,-8.0918 11.687,-15.7168 l -0.611,-3.4539 -141.048,20.4957 c -4.224,0.614 -7.228,4.4273 -6.836,8.6781" /><path
           inkscape:connector-curvature="0"
           id="path482"
           style="fill:#671821;fill-opacity:1;fill-rule:nonzero;stroke:none;stroke-width:0.1"
           d="m -542.70426,103.16887 -47.446,6.8937 -7.801,1.134 -18.491,2.6871 -29.074,4.225 -21.285,3.093 -14.326,2.082 -2.625,0.3809 c -3.977,0.5781 -6.872,3.991 -6.87,7.9363 0,0.2449 0.011,0.493 0.034,0.7418 l 0.526,5.6969 136.282,-15.7 c 6.895,-0.809 11.905,-6.6707 11.896,-13.3688 -10e-4,-0.7742 -0.069,-1.559 -0.209,-2.348 l -0.611,-3.4539" /><path
           inkscape:connector-curvature="0"
           id="path484"
           style="fill:#b2b1b0;fill-opacity:1;fill-rule:nonzero;stroke:none;stroke-width:0.1"
           d="m -380.20826,152.48467 c -0.936,0.153 -1.858,0.276 -2.761,0.373 1.047,-0.098 2.017,-0.222 2.761,-0.373 m -9.215,0.666 c 0,0.001 0,0.003 0,0.003 0.001,0.002 0.001,0.002 0.001,0.002 0.095,0.001 0.196,0.002 0.302,0.002 0.1,0 0.204,-0.001 0.312,-0.001 -0.207,-0.001 -0.411,-0.003 -0.615,-0.006" /><path
           inkscape:connector-curvature="0"
           id="path486"
           style="fill:#bc283b;fill-opacity:1;fill-rule:nonzero;stroke:none;stroke-width:0.1"
           d="m -425.53926,94.241469 c 0.808,0.9231 1.632,1.8832 2.47,2.8762 3.77,4.400001 11.154,13.377001 18.151,23.953101 8.243,12.118 14.815,23.9449 15.37,30.3239 0.052,0.598 0.094,1.183 0.125,1.756 0.204,0.003 0.408,0.005 0.615,0.006 1.5,-0.012 3.812,-0.108 5.839,-0.299 0.903,-0.097 1.825,-0.22 2.761,-0.373 0.026,-0.005 0.052,-0.011 0.078,-0.016 0,0 -17.712,-48.144 -45.409,-58.227201" /><path
           inkscape:connector-curvature="0"
           id="path488"
           style="fill:#bc283b;fill-opacity:1;fill-rule:nonzero;stroke:none;stroke-width:0.1"
           d="m -425.60826,94.216869 c 0,0 0.947,1.0418 2.539,2.9008 -0.838,-0.993 -1.662,-1.9531 -2.47,-2.8762 -0.023,-0.0078 -0.046,-0.0156 -0.069,-0.0246 m 20.69,26.853901 c 6.683,10.102 13.011,21.6641 15.496,32.0849 -0.001,-0.002 -0.001,-0.004 -0.001,-0.005 -0.031,-0.573 -0.073,-1.158 -0.125,-1.756 -0.555,-6.379 -7.127,-18.2059 -15.37,-30.3239" /><path
           inkscape:connector-curvature="0"
           id="path490"
           style="fill:#1d2a30;fill-opacity:1;fill-rule:nonzero;stroke:none;stroke-width:0.1"
           d="m -389.85726,164.78467 c 0.017,0.003 0.073,-0.283 0.163,-0.833 0.078,-0.55 0.24,-1.36 0.341,-2.414 0.195,-2.105 0.323,-5.196 -0.233,-8.957 -0.539,-3.7571 -1.825,-8.1388 -3.957,-12.679 -2.085,-4.5649 -4.955,-9.275 -7.943,-14.1988 -6.009,-9.886 -12.699,-17.9723 -17.561,-23.7473 -2.444,-2.882801 -4.458,-5.182801 -5.858,-6.766001 -0.68,-0.7598 -1.221,-1.3637 -1.623,-1.8129 -0.376,-0.4098 -0.58,-0.6199 -0.594,-0.6078 -0.014,0.0109 0.164,0.2437 0.514,0.6758 0.383,0.4652 0.9,1.0902 1.549,1.8761 1.386,1.6629 3.335,3.9989 5.73,6.871901 4.787,5.8301 11.414,13.9352 17.397,23.7801 2.99,4.9269 5.861,9.6097 7.953,14.1308 2.141,4.4961 3.448,8.82 4.03,12.5341 0.596,3.717 0.526,6.783 0.394,8.883 -0.069,1.051 -0.199,1.861 -0.243,2.416 -0.057,0.552 -0.077,0.845 -0.059,0.848" /><path
           inkscape:connector-curvature="0"
           id="path492"
           style="fill:#1d2a30;fill-opacity:1;fill-rule:nonzero;stroke:none;stroke-width:0.1"
           d="m -441.71926,94.456769 c -0.1,-0.1032 -2.252,1.8398 -4.805,4.339 -2.553,2.500001 -4.541,4.609001 -4.44,4.712901 0.101,0.102 2.251,-1.8398 4.805,-4.341001 2.552,-2.4988 4.541,-4.6078 4.44,-4.7109" /><path
           inkscape:connector-curvature="0"
           id="path494"
           style="fill:#1d2a30;fill-opacity:1;fill-rule:nonzero;stroke:none;stroke-width:0.1"
           d="m -530.75326,95.473569 c -0.124,0.055 0.699,2.0652 2.201,4.2691 1.493,2.210901 3.057,3.718001 3.154,3.623001 0.113,-0.1011 -1.255,-1.741 -2.723,-3.914801 -1.477,-2.1672 -2.495,-4.0453 -2.632,-3.9773" /><path
           inkscape:connector-curvature="0"
           id="path496"
           style="fill:#1d2a30;fill-opacity:1;fill-rule:nonzero;stroke:none;stroke-width:0.1"
           d="m -588.39626,76.421569 c -0.121,0.1031 2.154,1.55 4.093,5.1981 0.968,1.8011 1.765,4.1531 2.005,6.846 0.248,2.6821 -0.141,5.7168 -1.456,8.5372 -1.364,2.798 -3.479,5.010901 -5.72,6.505801 -2.245,1.5078 -4.574,2.3672 -6.583,2.7488 -4.056,0.7883 -6.612,-0.0679 -6.614,0.0903 -0.005,0.0168 0.148,0.0629 0.446,0.1347 0.3,0.0563 0.735,0.2024 1.315,0.2543 1.149,0.1789 2.859,0.234 4.922,-0.1179 2.059,-0.3422 4.46,-1.184 6.78,-2.7114 2.315,-1.5117 4.512,-3.7839 5.925,-6.679601 1.361,-2.9204 1.745,-6.0551 1.464,-8.8071 -0.275,-2.7633 -1.13,-5.1582 -2.16,-6.9761 -1.025,-1.8231 -2.142,-3.1188 -3.005,-3.8989 -0.407,-0.4179 -0.793,-0.664 -1.025,-0.8609 -0.243,-0.1871 -0.375,-0.2781 -0.387,-0.2633" /><path
           inkscape:connector-curvature="0"
           id="path498"
           style="fill:#1d2a30;fill-opacity:1;fill-rule:nonzero;stroke:none;stroke-width:0.1"
           d="m -638.15926,86.867669 c -0.145,-0.007 -0.364,2.1461 -0.49,4.807 -0.127,2.6621 -0.113,4.8239 0.031,4.8309 0.143,0.007 0.362,-2.1449 0.489,-4.807 0.127,-2.661 0.113,-4.8239 -0.03,-4.8309" /><path
           inkscape:connector-curvature="0"
           id="path500"
           style="fill:#1d2a30;fill-opacity:1;fill-rule:nonzero;stroke:none;stroke-width:0.1"
           d="m -634.54526,86.860669 c -0.143,-0.018 -0.534,2.1289 -0.875,4.7949 -0.341,2.6672 -0.501,4.843 -0.358,4.8609 0.142,0.0184 0.534,-2.1277 0.875,-4.7949 0.34,-2.666 0.501,-4.8418 0.358,-4.8609" /><path
           inkscape:connector-curvature="0"
           id="path502"
           style="fill:#1d2a30;fill-opacity:1;fill-rule:nonzero;stroke:none;stroke-width:0.1"
           d="m -578.34226,179.35167 c 0,-0.144 -16.57,-0.26 -37.005,-0.26 -20.442,0 -37.009,0.116 -37.009,0.26 0,0.143 16.567,0.26 37.009,0.26 20.435,0 37.005,-0.117 37.005,-0.26" /><path
           inkscape:connector-curvature="0"
           id="path504"
           style="fill:#1d2a30;fill-opacity:1;fill-rule:nonzero;stroke:none;stroke-width:0.1"
           d="m -631.99826,179.40167 c -0.145,0 -0.261,18.978 -0.261,42.383 0,23.412 0.116,42.387 0.261,42.387 0.143,0 0.26,-18.975 0.26,-42.387 0,-23.405 -0.117,-42.383 -0.26,-42.383" /><path
           inkscape:connector-curvature="0"
           id="path508"
           style="fill:#365462;fill-opacity:1;fill-rule:nonzero;stroke:none;stroke-width:0.1"
           d="m -665.09526,63.824669 c -0.014,-0.0121 -0.164,0.1399 -0.439,0.441 -0.267,0.3059 -0.693,0.7352 -1.168,1.3469 -0.988,1.1922 -2.313,3.0133 -3.69,5.4223 -2.765,4.7719 -5.505,12.2258 -5.471,20.7578 0.036,8.535901 2.839,15.968001 5.643,20.716001 1.397,2.3981 2.737,4.2082 3.735,5.3922 0.48,0.6066 0.909,1.0328 1.178,1.3367 0.278,0.2981 0.43,0.4492 0.443,0.4371 0.013,-0.0121 -0.113,-0.1859 -0.364,-0.5058 -0.243,-0.3262 -0.645,-0.7703 -1.098,-1.3942 -0.946,-1.2172 -2.23,-3.0468 -3.573,-5.4468 -2.699,-4.7563 -5.407,-12.1133 -5.443,-20.537201 -0.033,-8.421 2.612,-15.7992 5.272,-20.5769 1.324,-2.4109 2.593,-4.252 3.528,-5.4762 0.448,-0.6277 0.847,-1.0758 1.087,-1.4039 0.249,-0.3219 0.373,-0.4969 0.36,-0.509" /><path
           inkscape:connector-curvature="0"
           id="path510"
           style="fill:#365462;fill-opacity:1;fill-rule:nonzero;stroke:none;stroke-width:0.1"
           d="m -521.83526,140.01457 -0.313,-0.5879 -6.017,-11.332 -8.441,-8.127 16.868,-22.455101 14.055,2.3313 c 0,0 -1.579,3.209001 -8.631,3.827701 l -2.698,13.4223 9.912,15.3597" /><path
           inkscape:connector-curvature="0"
           id="path512"
           style="fill:#e3e3e2;fill-opacity:1;fill-rule:nonzero;stroke:none;stroke-width:0.1"
           d="m -536.60626,119.96767 16.868,-22.455101 14.055,2.3313 -1.934,1.850001 -11.533,-1.268 -15.661,21.2699 -1.795,-1.7281" /><path
           inkscape:connector-curvature="0"
           id="path514"
           style="fill:#1d2a30;fill-opacity:1;fill-rule:nonzero;stroke:none;stroke-width:0.1"
           d="m -515.43326,109.84067 c -0.08,-0.1609 -0.967,0.1649 -2.048,-0.046 -1.088,-0.1809 -1.805,-0.7969 -1.937,-0.6739 -0.149,0.084 0.503,1.0578 1.824,1.2899 1.321,0.2449 2.272,-0.4379 2.161,-0.57" /><path
           inkscape:connector-curvature="0"
           id="path516"
           style="fill:#1d2a30;fill-opacity:1;fill-rule:nonzero;stroke:none;stroke-width:0.1"
           d="m -516.21626,113.15087 c -0.125,-0.123 -0.889,0.6027 -2.046,0.634 -1.156,0.0449 -1.966,-0.6293 -2.082,-0.4981 -0.058,0.0551 0.065,0.318 0.423,0.5989 0.352,0.2789 0.965,0.5492 1.681,0.5261 0.715,-0.0242 1.308,-0.3339 1.641,-0.6351 0.339,-0.3051 0.445,-0.575 0.383,-0.6258" /><path
           inkscape:connector-curvature="0"
           id="path518"
           style="fill:#1d2a30;fill-opacity:1;fill-rule:nonzero;stroke:none;stroke-width:0.1"
           d="m -516.84026,117.46567 c -0.141,-0.1039 -0.755,0.629 -1.791,0.8051 -1.033,0.1891 -1.86,-0.289 -1.958,-0.1441 -0.049,0.064 0.097,0.2898 0.461,0.5 0.358,0.2101 0.954,0.375 1.606,0.2609 0.652,-0.1148 1.156,-0.475 1.42,-0.7937 0.271,-0.3231 0.33,-0.584 0.262,-0.6282" /><path
           inkscape:connector-curvature="0"
           id="path520"
           style="fill:#1d2a30;fill-opacity:1;fill-rule:nonzero;stroke:none;stroke-width:0.1"
           d="m -513.63226,121.42467 c -0.158,-0.0871 -0.685,0.6461 -1.652,1.066 -0.954,0.4481 -1.854,0.359 -1.893,0.534 -0.075,0.1551 0.974,0.575 2.151,0.0379 1.18,-0.5269 1.559,-1.5918 1.394,-1.6379" /><path
           inkscape:connector-curvature="0"
           id="path522"
           style="fill:#1d2a30;fill-opacity:1;fill-rule:nonzero;stroke:none;stroke-width:0.1"
           d="m -512.27926,124.61457 c -0.064,-0.0578 -0.621,0.4301 -1.471,1.2672 -0.483,0.4898 -0.971,0.9847 -1.47,1.4918 -0.258,0.2961 -0.589,0.5351 -0.841,1.0281 -0.117,0.25 -0.163,0.5609 -0.056,0.868 0.094,0.3222 0.459,0.5761 0.774,0.5839 0.628,0.0121 1.024,-0.2449 1.426,-0.4629 0.394,-0.239 0.731,-0.5281 1.017,-0.8332 0.567,-0.6179 0.901,-1.3078 1.074,-1.9058 0.344,-1.2199 0.054,-1.9969 10e-4,-1.9719 -0.113,0.005 -0.002,0.7621 -0.421,1.8301 -0.209,0.5269 -0.549,1.1238 -1.072,1.6488 -0.263,0.2602 -0.567,0.5031 -0.911,0.7031 -0.335,0.1911 -0.764,0.3899 -1.057,0.3688 -0.14,-0.0188 -0.2,-0.066 -0.244,-0.1731 -0.042,-0.1128 -0.034,-0.2679 0.029,-0.4039 0.126,-0.2871 0.454,-0.589 0.705,-0.8879 0.466,-0.5371 0.92,-1.0628 1.371,-1.5832 0.767,-0.9136 1.209,-1.5089 1.146,-1.5679" /><path
           inkscape:connector-curvature="0"
           id="path524"
           style="fill:#1d2a30;fill-opacity:1;fill-rule:nonzero;stroke:none;stroke-width:0.1"
           d="m -511.70726,124.28057 c -0.066,-0.006 -0.137,0.7422 0.484,1.7133 0.608,0.9218 2.089,2.0457 4.041,1.4449 0.148,-0.0891 0.282,-0.2723 0.302,-0.466 0.025,-0.1961 -0.034,-0.3539 -0.095,-0.4742 -0.131,-0.2457 -0.296,-0.3848 -0.43,-0.525 -0.288,-0.2829 -0.593,-0.5278 -0.899,-0.734 -0.612,-0.4137 -1.231,-0.6727 -1.762,-0.8239 -1.074,-0.2992 -1.767,-0.1968 -1.765,-0.1261 -0.008,0.1011 0.657,0.1613 1.621,0.5461 0.479,0.191 1.03,0.4718 1.573,0.8761 0.272,0.2008 0.541,0.4329 0.796,0.6938 0.129,0.1371 0.261,0.266 0.312,0.3769 0.048,0.1352 0.036,0.0973 0.006,0.1301 -0.053,0.0442 -0.251,0.0723 -0.432,0.0832 -0.18,0.0129 -0.359,0.011 -0.534,-0.006 -0.352,-0.0309 -0.686,-0.1168 -0.988,-0.2379 -0.608,-0.2399 -1.068,-0.634 -1.388,-1.0199 -0.64,-0.7911 -0.741,-1.4743 -0.842,-1.4512" /><path
           inkscape:connector-curvature="0"
           id="path526"
           style="fill:#e3e3e2;fill-opacity:1;fill-rule:nonzero;stroke:none;stroke-width:0.1"
           d="m -525.46526,122.25987 c 0.153,-0.9211 -0.469,-1.7922 -1.389,-1.9453 -0.92,-0.1547 -1.792,0.4672 -1.946,1.3883 -0.153,0.9199 0.469,1.791 1.39,1.9457 0.92,0.1531 1.791,-0.4688 1.945,-1.3887" /><path
           inkscape:connector-curvature="0"
           id="path528"
           style="fill:#365462;fill-opacity:1;fill-rule:nonzero;stroke:none;stroke-width:0.1"
           d="m -470.63526,129.21177 4.51,-29.283901 36.463,5.425001 c -0.732,3.4507 -20.636,7.6367 -20.636,7.6367 l -2.119,18.882 -18.218,-2.6598" /><path
           inkscape:connector-curvature="0"
           id="path530"
           style="fill:#e3e3e2;fill-opacity:1;fill-rule:nonzero;stroke:none;stroke-width:0.1"
           d="m -461.80826,112.89267 c -0.676,-0.298 -1.047,-1.1629 -0.776,-1.8531 0.269,-0.6879 1.146,-1.0719 1.829,-0.786 0.682,0.286 1.157,1.3133 0.813,1.9672 -0.346,0.6539 -1.401,1.0481 -1.995,0.6059" /><path
           inkscape:connector-curvature="0"
           id="path532"
           style="fill:#e3e3e2;fill-opacity:1;fill-rule:nonzero;stroke:none;stroke-width:0.1"
           d="m -466.12526,99.927869 -0.339,2.969901 35.087,4.089 c 0,0 1.728,-0.464 1.715,-1.6339 l -36.463,-5.425001" /><path
           inkscape:connector-curvature="0"
           id="path534"
           style="fill:#1d2a30;fill-opacity:1;fill-rule:nonzero;stroke:none;stroke-width:0.1"
           d="m -449.73426,113.26377 c 0.02,-0.1789 -0.858,-0.3922 -1.649,-1.0949 -0.809,-0.6832 -1.146,-1.5203 -1.32,-1.475 -0.169,0.01 -0.063,1.1148 0.91,1.9488 0.965,0.8422 2.073,0.7898 2.059,0.6211" /><path
           inkscape:connector-curvature="0"
           id="path536"
           style="fill:#1d2a30;fill-opacity:1;fill-rule:nonzero;stroke:none;stroke-width:0.1"
           d="m -445.67526,112.25087 c 0.067,-0.166 -0.659,-0.5844 -1.152,-1.4273 -0.518,-0.8289 -0.549,-1.6661 -0.727,-1.684 -0.164,-0.0528 -0.442,0.9711 0.191,2.009 0.623,1.041 1.66,1.2711 1.688,1.1023" /><path
           inkscape:connector-curvature="0"
           id="path538"
           style="fill:#1d2a30;fill-opacity:1;fill-rule:nonzero;stroke:none;stroke-width:0.1"
           d="m -442.82126,107.99657 c -0.157,-0.0617 -0.536,0.791 -0.225,1.834 0.305,1.0453 1.088,1.5551 1.185,1.418 0.123,-0.1321 -0.34,-0.7348 -0.583,-1.5957 -0.264,-0.8543 -0.204,-1.6122 -0.377,-1.6563" /><path
           inkscape:connector-curvature="0"
           id="path540"
           style="fill:#1d2a30;fill-opacity:1;fill-rule:nonzero;stroke:none;stroke-width:0.1"
           d="m -450.69426,117.51377 c -0.051,-0.1742 -0.905,-0.05 -1.901,-0.268 -1.001,-0.198 -1.733,-0.6519 -1.848,-0.5133 -0.123,0.1133 0.544,0.8864 1.72,1.1274 1.175,0.2488 2.095,-0.1942 2.029,-0.3461" /><path
           inkscape:connector-curvature="0"
           id="path542"
           style="fill:#1d2a30;fill-opacity:1;fill-rule:nonzero;stroke:none;stroke-width:0.1"
           d="m -452.20726,121.70987 c 0.014,-0.0731 -0.674,-0.2871 -1.827,-0.2621 -0.574,0.014 -1.261,0.0988 -1.998,0.3031 -0.368,0.1027 -0.749,0.234 -1.132,0.4008 -0.184,0.0832 -0.4,0.1621 -0.615,0.3469 -0.225,0.1562 -0.408,0.6113 -0.222,0.9351 0.144,0.307 0.457,0.4781 0.719,0.5231 0.267,0.0488 0.493,0.0269 0.699,0.007 0.421,-0.0379 0.821,-0.116 1.193,-0.2211 0.744,-0.2129 1.369,-0.5289 1.849,-0.8539 0.962,-0.657 1.35,-1.2789 1.294,-1.3231 -0.071,-0.071 -0.567,0.425 -1.524,0.9442 -0.477,0.2578 -1.075,0.509 -1.765,0.675 -0.345,0.0816 -0.713,0.141 -1.096,0.168 -0.401,0.0437 -0.73,-0.002 -0.804,-0.1903 -0.026,-0.0699 -0.027,-0.0957 0.071,-0.198 0.098,-0.0918 0.27,-0.1707 0.452,-0.2528 0.353,-0.1621 0.705,-0.2972 1.047,-0.4082 0.682,-0.2211 1.323,-0.3461 1.865,-0.414 1.088,-0.136 1.783,-0.0821 1.794,-0.1797" /><path
           inkscape:connector-curvature="0"
           id="path544"
           style="fill:#1d2a30;fill-opacity:1;fill-rule:nonzero;stroke:none;stroke-width:0.1"
           d="m -452.40026,121.42077 c -0.06,-0.0371 -0.508,0.5489 -0.745,1.6918 -0.115,0.5672 -0.159,1.2692 -0.048,2.0371 0.057,0.3821 0.154,0.7801 0.3,1.177 0.161,0.3922 0.349,0.9129 1.028,1.0949 0.359,0.0672 0.7,-0.1699 0.839,-0.3949 0.157,-0.2289 0.212,-0.4371 0.287,-0.6418 0.13,-0.416 0.184,-0.834 0.183,-1.2301 0.001,-0.793 -0.22,-1.4859 -0.499,-2.0019 -0.572,-1.0512 -1.283,-1.375 -1.307,-1.3161 -0.073,0.0797 0.497,0.5168 0.907,1.5059 0.202,0.4871 0.353,1.1129 0.322,1.802 -0.015,0.3421 -0.073,0.7 -0.19,1.0492 -0.115,0.3789 -0.307,0.6699 -0.446,0.6097 -0.181,-0.025 -0.447,-0.3617 -0.549,-0.6937 -0.139,-0.3543 -0.239,-0.7113 -0.306,-1.057 -0.13,-0.693 -0.136,-1.3383 -0.082,-1.875 0.109,-1.077 0.398,-1.7161 0.306,-1.7571" /><path
           inkscape:connector-curvature="0"
           id="path546"
           style="fill:#1d2a30;fill-opacity:1;fill-rule:nonzero;stroke:none;stroke-width:0.1"
           d="m -499.32726,197.99267 -31.273,-68.1379 20.653,-12.3992 43.239,81.9881" /><path
           inkscape:connector-curvature="0"
           id="path548"
           style="fill:#1d2a30;fill-opacity:1;fill-rule:nonzero;stroke:none;stroke-width:0.1"
           d="m -447.75826,115.89967 -22.44,-3.598 -13.429,80.137 -66.347,-4.811 c -1.758,-0.108 -3.532,0.04 -5.231,0.505 -18.636,5.106 -16.113,28.864 -14.317,32.673 l 91.813,2.638 c 9.959,0.286 18.54,-6.964 19.922,-16.831 l 10.029,-90.713" /><path
           inkscape:connector-curvature="0"
           id="path550"
           style="fill:#f03658;fill-opacity:1;fill-rule:nonzero;stroke:none;stroke-width:0.1"
           d="m -570.43126,217.03567 0.333,33.883 c 0,0 -4.373,22.029 -5.667,30.689 -2.009,13.446 -4.76,19.828 17.261,29.387 l 4.813,1.857 7.451,-0.099 c 8.886,-0.668 18.247,-8.7 18.462,-14.025 l 8.573,-76.346 -51.226,-5.346" /><path
           inkscape:connector-curvature="0"
           id="path552"
           style="fill:#f03658;fill-opacity:1;fill-rule:nonzero;stroke:none;stroke-width:0.1"
           d="m -569.05226,303.11567 c 0,0 -6.214,-13.377 -4.972,-25.565 l 23.165,-22.239 c 5.197,-5.784 11.691,-8.241 19.998,-8.745 l 47.943,-5.24 1.332,12.543 -45.606,12.925 c -1.814,0.334 -2.72,2.23 -4.112,3.441 l -37.748,32.88" /><path
           inkscape:connector-curvature="0"
           id="path554"
           style="fill:#1d2a30;fill-opacity:1;fill-rule:nonzero;stroke:none;stroke-width:0.1"
           d="m -572.79826,299.26467 c 0,0 0.261,0.286 0.919,0.614 0.657,0.325 1.702,0.655 3.098,0.867 1.39,0.197 3.15,0.354 5.179,-0.014 0.5,-0.117 1.029,-0.236 1.523,-0.522 0.483,-0.276 0.941,-0.611 1.409,-0.964 0.927,-0.718 1.857,-1.541 2.803,-2.448 1.924,-1.79 3.736,-4.061 5.868,-6.358 2.123,-2.315 4.464,-4.772 6.996,-7.361 2.533,-2.588 5.262,-5.303 8.19,-8.101 1.469,-1.393 2.985,-2.813 4.583,-4.203 0.813,-0.665 1.615,-1.446 2.385,-2.176 0.784,-0.716 1.668,-1.388 2.692,-1.576 l 0.013,-0.003 0.011,-0.003 c 13.563,-3.835 29.116,-8.232 45.613,-12.897 l 0.211,-0.059 -0.022,-0.219 c -0.095,-0.887 -0.197,-1.846 -0.298,-2.808 -0.355,-3.335 -0.705,-6.634 -1.035,-9.734 l -0.028,-0.259 -0.258,0.029 c -6.975,0.765 -13.758,1.509 -20.291,2.226 -3.266,0.36 -6.469,0.713 -9.602,1.058 -3.136,0.316 -6.201,0.626 -9.188,0.927 -2.986,0.328 -5.89,0.671 -8.702,1.082 -2.807,0.409 -5.545,0.931 -8.055,1.871 -2.519,0.92 -4.766,2.236 -6.788,3.646 -2.028,1.409 -3.872,2.884 -5.604,4.326 -6.85,5.849 -11.881,11.072 -15.371,14.634 -1.734,1.794 -3.059,3.202 -3.948,4.163 -0.432,0.473 -0.764,0.838 -1.003,1.1 -0.223,0.25 -0.326,0.387 -0.326,0.387 0,0 0.128,-0.114 0.363,-0.353 0.248,-0.254 0.592,-0.607 1.038,-1.066 0.931,-0.95 2.279,-2.326 4.014,-4.097 3.529,-3.517 8.599,-8.702 15.46,-14.498 1.729,-1.425 3.578,-2.889 5.596,-4.28 2.014,-1.39 4.231,-2.675 6.712,-3.571 2.476,-0.918 5.175,-1.425 7.976,-1.824 2.803,-0.4 5.705,-0.737 8.687,-1.056 2.987,-0.296 6.052,-0.598 9.187,-0.909 3.134,-0.34 6.338,-0.687 9.604,-1.042 6.535,-0.711 13.321,-1.45 20.297,-2.209 l -0.286,-0.23 c 0.329,3.099 0.679,6.399 1.032,9.734 0.103,0.962 0.204,1.921 0.299,2.809 l 0.188,-0.279 c -16.493,4.685 -32.039,9.102 -45.598,12.953 l 0.023,-0.005 c -1.184,0.224 -2.116,0.965 -2.918,1.697 -0.806,0.765 -1.54,1.489 -2.371,2.175 -1.605,1.403 -3.119,2.83 -4.586,4.231 -2.924,2.813 -5.645,5.541 -8.169,8.142 -2.524,2.602 -4.855,5.074 -6.968,7.404 -2.128,2.322 -3.918,4.595 -5.815,6.385 -0.932,0.909 -1.85,1.735 -2.76,2.452 -0.458,0.352 -0.913,0.69 -1.373,0.959 -0.454,0.27 -0.969,0.394 -1.454,0.513 -1.979,0.382 -3.735,0.251 -5.115,0.078 -1.386,-0.188 -2.429,-0.492 -3.087,-0.79 -0.659,-0.303 -0.932,-0.571 -0.95,-0.548" /><path
           inkscape:connector-curvature="0"
           id="path556"
           style="fill:#f9ad95;fill-opacity:1;fill-rule:nonzero;stroke:none;stroke-width:0.1"
           d="m -560.83226,342.23567 2.328,-32.981 c 0.38,-5.384 4.859,-9.558 10.258,-9.558 5.942,0 10.65,5.025 10.261,10.955 -0.207,3.14 -0.394,5.71 -0.394,5.71 0,0 7.984,1.242 8.083,9.225 0.057,4.61 -0.738,15.073 -1.42,23.089 -0.461,5.419 -4.997,9.578 -10.435,9.578 h -4.823 c -8.305,-0.484 -14.573,-7.729 -13.858,-16.018" /><path
           inkscape:connector-curvature="0"
           id="path558"
           style="fill:#f6865e;fill-opacity:1;fill-rule:nonzero;stroke:none;stroke-width:0.1"
           d="m -538.36526,316.47667 c 0,0 -5.045,-0.41 -10.408,2.958 0,0 2.46,-5.745 10.426,-5.026 l -0.018,2.068" /><path
           inkscape:connector-curvature="0"
           id="path560"
           style="fill:#1d2a30;fill-opacity:1;fill-rule:nonzero;stroke:none;stroke-width:0.1"
           d="m -533.51226,338.41767 c 0.022,-0.602 -0.47,-1.117 -1.099,-1.151 -0.627,-0.033 -1.154,0.426 -1.175,1.029 -0.022,0.601 0.471,1.116 1.097,1.15 0.629,0.034 1.156,-0.426 1.177,-1.028" /><path
           inkscape:connector-curvature="0"
           id="path562"
           style="fill:#1d2a30;fill-opacity:1;fill-rule:nonzero;stroke:none;stroke-width:0.1"
           d="m -533.09226,340.67067 c -0.141,-0.149 -1.005,0.49 -2.232,0.487 -1.225,0.014 -2.125,-0.617 -2.258,-0.467 -0.066,0.067 0.078,0.335 0.47,0.621 0.386,0.284 1.044,0.56 1.808,0.557 0.764,-0.005 1.407,-0.286 1.777,-0.573 0.377,-0.29 0.504,-0.559 0.435,-0.625" /><path
           inkscape:connector-curvature="0"
           id="path564"
           style="fill:#1d2a30;fill-opacity:1;fill-rule:nonzero;stroke:none;stroke-width:0.1"
           d="m -545.03026,338.41767 c 0.02,-0.602 -0.472,-1.117 -1.1,-1.151 -0.627,-0.033 -1.153,0.426 -1.175,1.029 -0.021,0.601 0.471,1.116 1.098,1.15 0.628,0.034 1.155,-0.426 1.177,-1.028" /><path
           inkscape:connector-curvature="0"
           id="path566"
           style="fill:#1d2a30;fill-opacity:1;fill-rule:nonzero;stroke:none;stroke-width:0.1"
           d="m -545.15026,340.44167 c -0.142,-0.149 -1.007,0.49 -2.233,0.487 -1.224,0.014 -2.126,-0.617 -2.259,-0.466 -0.065,0.065 0.078,0.334 0.471,0.619 0.386,0.285 1.044,0.561 1.809,0.558 0.763,-0.004 1.406,-0.285 1.776,-0.573 0.376,-0.29 0.505,-0.559 0.436,-0.625" /><path
           inkscape:connector-curvature="0"
           id="path568"
           style="fill:#1d2a30;fill-opacity:1;fill-rule:nonzero;stroke:none;stroke-width:0.1"
           d="m -540.69826,331.34367 c -0.006,0.07 0.757,0.201 1.992,0.359 0.313,0.032 0.61,0.095 0.663,0.309 0.073,0.226 -0.058,0.563 -0.209,0.928 -0.295,0.758 -0.604,1.553 -0.927,2.385 -1.287,3.397 -2.218,6.189 -2.081,6.24 0.138,0.05 1.292,-2.661 2.578,-6.058 0.31,-0.837 0.606,-1.635 0.888,-2.399 0.118,-0.356 0.322,-0.76 0.162,-1.229 -0.084,-0.235 -0.313,-0.405 -0.515,-0.458 -0.201,-0.062 -0.376,-0.065 -0.532,-0.075 -1.243,-0.067 -2.014,-0.072 -2.019,-0.002" /><path
           inkscape:connector-curvature="0"
           id="path570"
           style="fill:#1d2a30;fill-opacity:1;fill-rule:nonzero;stroke:none;stroke-width:0.1"
           d="m -544.30926,330.49467 c 0.2,0.012 0.203,-1.32 1.342,-2.265 1.138,-0.948 2.558,-0.799 2.568,-0.985 0.018,-0.083 -0.317,-0.259 -0.915,-0.275 -0.588,-0.02 -1.447,0.169 -2.144,0.747 -0.695,0.58 -0.994,1.353 -1.039,1.899 -0.051,0.557 0.098,0.887 0.188,0.879" /><path
           inkscape:connector-curvature="0"
           id="path572"
           style="fill:#1d2a30;fill-opacity:1;fill-rule:nonzero;stroke:none;stroke-width:0.1"
           d="m -544.83426,345.24867 c -0.121,-0.333 -1.346,-0.175 -2.785,-0.349 -1.443,-0.144 -2.604,-0.565 -2.794,-0.267 -0.085,0.144 0.117,0.457 0.586,0.78 0.466,0.323 1.208,0.629 2.071,0.725 0.864,0.095 1.655,-0.042 2.18,-0.256 0.528,-0.212 0.794,-0.475 0.742,-0.633" /><path
           inkscape:connector-curvature="0"
           id="path574"
           style="fill:#1d2a30;fill-opacity:1;fill-rule:nonzero;stroke:none;stroke-width:0.1"
           d="m -533.54326,344.22067 c -0.216,-0.278 -1.061,0.011 -2.077,0.024 -1.016,0.049 -1.877,-0.187 -2.074,0.104 -0.087,0.142 0.047,0.421 0.423,0.685 0.372,0.263 0.991,0.477 1.689,0.456 0.698,-0.022 1.304,-0.275 1.657,-0.56 0.36,-0.286 0.478,-0.573 0.382,-0.709" /><path
           inkscape:connector-curvature="0"
           id="path576"
           style="fill:#f9ad95;fill-opacity:1;fill-rule:nonzero;stroke:none;stroke-width:0.1"
           d="m -558.14126,336.24367 c -0.135,0.059 -5.485,1.623 -5.31,-3.835 0.174,-5.457 5.617,-4.157 5.622,-4 0.005,0.157 -0.312,7.835 -0.312,7.835" /><path
           inkscape:connector-curvature="0"
           id="path578"
           style="fill:#f6865e;fill-opacity:1;fill-rule:nonzero;stroke:none;stroke-width:0.1"
           d="m -559.56326,330.42267 c -0.024,0.017 -0.092,-0.069 -0.251,-0.148 -0.154,-0.077 -0.421,-0.135 -0.709,-0.037 -0.584,0.193 -1.099,1.093 -1.157,2.076 -0.03,0.496 0.059,0.972 0.223,1.369 0.153,0.405 0.403,0.692 0.691,0.753 0.287,0.076 0.498,-0.091 0.57,-0.242 0.078,-0.151 0.047,-0.261 0.076,-0.269 0.015,-0.013 0.114,0.095 0.063,0.319 -0.026,0.108 -0.093,0.234 -0.225,0.335 -0.135,0.102 -0.329,0.151 -0.531,0.122 -0.419,-0.042 -0.786,-0.442 -0.965,-0.878 -0.203,-0.439 -0.315,-0.974 -0.282,-1.531 0.071,-1.099 0.666,-2.11 1.462,-2.313 0.387,-0.088 0.704,0.038 0.866,0.172 0.164,0.14 0.189,0.263 0.169,0.272" /><path
           inkscape:connector-curvature="0"
           id="path580"
           style="fill:#1d2a30;fill-opacity:1;fill-rule:nonzero;stroke:none;stroke-width:0.1"
           d="m -561.17726,336.42967 c 0.832,0.201 2.273,-0.567 2.627,-1.347 0.356,-0.779 0.434,-1.662 0.787,-2.442 0.354,-0.78 1.154,-1.485 1.988,-1.288 0.574,0.136 0.985,0.674 1.136,1.245 0.153,0.571 0.091,1.175 0.017,1.761 -0.321,2.548 -0.858,5.076 -0.96,7.643 -0.103,2.567 0.263,5.234 1.611,7.421 1.348,2.187 3.824,3.795 6.384,3.588 1.696,-0.136 3.252,-1.021 4.937,-1.256 1.999,-0.28 4.111,0.425 5.54,1.849 0.183,0.182 1.035,0.744 1.035,0.744 0,0.132 -0.125,1.272 -0.574,1.687 -3.343,3.092 -9.368,3.955 -13.784,2.844 -4.416,-1.112 -8.554,-4.229 -10.455,-8.368 -1.899,-4.138 -1.336,-9.894 -0.289,-14.081" /><path
           inkscape:connector-curvature="0"
           id="path582"
           style="fill:#f03658;fill-opacity:1;fill-rule:nonzero;stroke:none;stroke-width:0.1"
           d="m -531.62726,349.90767 c 0,0 -20.943,6.738 -30.003,-11.382 0,0 -1.354,4.535 -1.354,6.966 0,1.623 0.971,11.291 10.919,14.332 0,0 14.987,5.721 20.438,-9.916" /><path
           inkscape:connector-curvature="0"
           id="path584"
           style="fill:#1d2a30;fill-opacity:1;fill-rule:nonzero;stroke:none;stroke-width:0.1"
           d="m -549.62226,349.45567 c 0.739,-1.196 2.06,-2.013 3.461,-2.14 1.4,-0.127 2.847,0.438 3.791,1.48 0.413,-1.032 1.522,-1.741 2.633,-1.683 1.11,0.058 2.14,0.88 2.443,1.95 0.608,-0.591 1.242,-1.197 2.038,-1.488 0.795,-0.292 1.804,-0.181 2.326,0.486 0.532,0.679 0.378,1.715 -0.144,2.402 -0.522,0.687 -1.326,1.096 -2.122,1.429 -2.489,1.039 -5.232,1.56 -7.904,1.199 -2.671,-0.362 -5.258,-1.658 -6.928,-3.774 l 0.406,0.139" /><path
           inkscape:connector-curvature="0"
           id="path586"
           style="fill:#16191b;fill-opacity:1;fill-rule:nonzero;stroke:none;stroke-width:0.1"
           d="m -561.63026,338.52567 c 0,0 0,0.002 -10e-4,0.004 v 0 c 10e-4,-0.002 10e-4,-0.004 10e-4,-0.004 0.801,1.603 1.695,3.01 2.659,4.245 -0.981,-1.272 -1.878,-2.683 -2.659,-4.245" /><path
           inkscape:connector-curvature="0"
           id="path588"
           style="fill:#a02232;fill-opacity:1;fill-rule:nonzero;stroke:none;stroke-width:0.1"
           d="m -561.63026,338.52567 c 0,0 0,0.002 -10e-4,0.004 -0.043,0.143 -1.353,4.571 -1.353,6.962 0,1.623 0.971,11.291 10.919,14.332 0,0 2.676,1.022 6.177,1.022 4.785,0 11.113,-1.908 14.261,-10.938 v 0 c 0,0 -2.384,2.835 -6.66,3.024 -0.124,0.006 -0.25,0.01 -0.379,0.012 -0.894,0.169 -1.802,0.261 -2.709,0.261 -0.576,0 -1.152,-0.037 -1.725,-0.114 -1.977,-0.268 -3.91,-1.048 -5.457,-2.294 -3.683,-1.596 -7.439,-4.17 -10.414,-8.026 -0.964,-1.235 -1.858,-2.642 -2.659,-4.245" /><path
           inkscape:connector-curvature="0"
           id="path590"
           style="fill:#16191b;fill-opacity:1;fill-rule:nonzero;stroke:none;stroke-width:0.1"
           d="m -548.55726,350.79667 c 1.547,1.246 3.48,2.026 5.457,2.294 0.573,0.077 1.149,0.114 1.725,0.114 0.907,0 1.815,-0.092 2.709,-0.261 -0.099,0.002 -0.201,0.003 -0.302,0.003 -2.636,0 -6.079,-0.63 -9.589,-2.15" /><path
           inkscape:connector-curvature="0"
           id="path592"
           style="fill:#f03658;fill-opacity:1;fill-rule:nonzero;stroke:none;stroke-width:0.1"
           d="m -560.75526,340.64767 c 3.106,4.751 7.387,8.679 12.201,11.687 4.815,3.007 12.775,5.982 18.261,7.438 1.647,0.437 3.364,0.819 5.043,0.529 1.68,-0.29 3.323,-1.408 3.74,-3.061 0.522,-2.068 -3.149,-5.259 -4.874,-6.514 -1.724,-1.255 -5.243,-3.096 -5.243,-3.096 0,0 0.047,3.836 -6.093,4.627 -8.351,1.076 -23.035,-11.61 -23.035,-11.61" /><path
           inkscape:connector-curvature="0"
           id="path594"
           style="fill:#bc283b;fill-opacity:1;fill-rule:nonzero;stroke:none;stroke-width:0.1"
           d="m -536.96826,242.96167 c -3.82,0 -7.67,0.808 -11.175,2.275 -5.205,2.177 -9.386,6.335 -12.516,11.03 -2.9,4.348 -4.983,10.183 -6.99,15.163 l 16.79,-16.118 c 4.688,-5.219 10.433,-7.728 17.611,-8.539 0.831,-0.153 1.672,-0.286 2.519,-0.41 1.572,-0.229 3.172,-0.438 4.8,-0.635 -0.166,-0.424 -0.995,-0.666 -1.45,-0.863 -3.013,-1.301 -6.29,-1.903 -9.589,-1.903" /><path
           inkscape:connector-curvature="0"
           id="path596"
           style="fill:#bc283b;fill-opacity:1;fill-rule:nonzero;stroke:none;stroke-width:0.1"
           d="m -533.24826,246.77267 c -7.178,0.811 -12.923,3.32 -17.611,8.539 l -16.79,16.118 c -0.131,0.326 -0.262,0.648 -0.393,0.967 0.458,-0.481 0.957,-1 1.495,-1.557 3.49,-3.562 8.521,-8.785 15.371,-14.634 1.732,-1.442 3.576,-2.917 5.604,-4.326 2.022,-1.41 4.269,-2.726 6.788,-3.646 1.753,-0.656 3.616,-1.109 5.536,-1.461 m -20.544,12.156 c -5.441,4.796 -9.594,9.032 -12.617,12.045 -0.325,0.332 -0.637,0.65 -0.934,0.954 4.184,-3.647 9.484,-9.086 13.551,-12.999" /><path
           inkscape:connector-curvature="0"
           id="path598"
           style="fill:#161c1e;fill-opacity:1;fill-rule:nonzero;stroke:none;stroke-width:0.1"
           d="m -525.92926,245.72767 c -1.628,0.197 -3.228,0.406 -4.8,0.635 -0.847,0.124 -1.688,0.257 -2.519,0.41 -1.92,0.352 -3.783,0.805 -5.536,1.461 -2.519,0.92 -4.766,2.236 -6.788,3.646 -2.028,1.409 -3.872,2.884 -5.604,4.326 -6.85,5.849 -11.881,11.072 -15.371,14.634 -0.538,0.557 -1.037,1.076 -1.495,1.557 -0.028,0.067 -0.056,0.135 -0.084,0.203 0.256,-0.216 0.517,-0.441 0.783,-0.672 0.297,-0.304 0.609,-0.622 0.934,-0.954 3.023,-3.013 7.176,-7.249 12.617,-12.045 1.668,-1.604 3.128,-2.952 4.219,-3.814 6.288,-4.969 7.712,-6.591 20.85,-8.807 0.662,-0.113 2.817,-0.354 2.817,-0.354 0.013,-0.08 0.004,-0.156 -0.023,-0.226" /><path
           inkscape:connector-curvature="0"
           id="path600"
           style="fill:#1d2a30;fill-opacity:1;fill-rule:nonzero;stroke:none;stroke-width:0.1"
           d="m -526.37026,234.65867 c 0.025,-0.011 -0.141,-0.459 -0.546,-1.218 -0.4,-0.762 -1.094,-1.811 -2.124,-2.961 -2.036,-2.321 -5.663,-4.834 -10.175,-6.226 -4.513,-1.387 -8.795,-1.644 -11.843,-1.774 -1.53,-0.058 -2.768,-0.07 -3.624,-0.066 -0.855,0.004 -1.329,0.025 -1.33,0.061 -10e-4,0.036 0.47,0.084 1.323,0.141 0.957,0.062 2.166,0.139 3.612,0.231 3.035,0.223 7.272,0.541 11.707,1.904 4.428,1.367 7.997,3.771 10.06,5.98 2.102,2.197 2.838,3.99 2.94,3.928" /><path
           inkscape:connector-curvature="0"
           id="path602"
           style="fill:#365462;fill-opacity:1;fill-rule:nonzero;stroke:none;stroke-width:0.1"
           d="m -469.79726,109.90677 c -0.009,-0.002 -0.035,0.1039 -0.079,0.3109 -0.046,0.234 -0.106,0.5379 -0.181,0.9199 -0.153,0.8449 -0.369,2.0321 -0.643,3.5461 -0.543,3.118 -1.318,7.5699 -2.273,13.057 -1.873,11.0641 -4.452,26.291 -7.301,43.112 -1.27,7.613 -2.485,14.899 -3.593,21.545 l 0.259,-0.203 c -11.656,-0.852 -21.619,-1.581 -28.706,-2.099 -3.502,-0.237 -6.292,-0.427 -8.244,-0.56 -0.932,-0.054 -1.664,-0.097 -2.196,-0.129 -0.229,-0.009 -0.415,-0.016 -0.566,-0.023 -0.127,-0.003 -0.193,-0.001 -0.193,0.006 -0.001,0.008 0.064,0.019 0.19,0.036 0.15,0.017 0.335,0.037 0.563,0.062 0.53,0.051 1.26,0.12 2.19,0.207 1.949,0.165 4.736,0.402 8.233,0.7 7.084,0.564 17.042,1.357 28.691,2.286 l 0.222,0.017 0.037,-0.219 c 1.118,-6.645 2.345,-13.929 3.626,-21.54 2.79,-16.83 5.317,-32.0671 7.152,-43.137 0.886,-5.4988 1.605,-9.9598 2.109,-13.0848 0.233,-1.5203 0.417,-2.7133 0.547,-3.5621 0.054,-0.3851 0.096,-0.691 0.13,-0.9281 0.026,-0.2102 0.035,-0.3192 0.026,-0.3199" /><path
           inkscape:connector-curvature="0"
           id="path604"
           style="fill:#365462;fill-opacity:1;fill-rule:nonzero;stroke:none;stroke-width:0.1"
           d="m -476.89026,199.58067 c 0.094,-0.118 -1.653,-1.619 -3.635,-3.64 -1.991,-2.015 -3.463,-3.787 -3.583,-3.695 -0.111,0.08 1.194,2.017 3.211,4.06 2.01,2.049 3.926,3.385 4.007,3.275" /><path
           inkscape:connector-curvature="0"
           id="path606"
           style="fill:#1d2a30;fill-opacity:1;fill-rule:nonzero;stroke:none;stroke-width:0.1"
           d="m -538.18626,309.94567 c 0.018,0.005 0.059,-0.107 0.122,-0.327 0.073,-0.217 0.133,-0.548 0.189,-0.98 0.102,-0.861 0.046,-2.157 -0.486,-3.636 -0.54,-1.46 -1.591,-3.104 -3.294,-4.326 -1.694,-1.23 -4.027,-1.866 -6.417,-1.713 -2.395,0.163 -4.596,1.063 -6.23,2.334 -1.651,1.258 -2.782,2.781 -3.54,4.131 -0.747,1.365 -1.146,2.563 -1.354,3.401 -0.103,0.42 -0.17,0.748 -0.199,0.974 -0.033,0.225 -0.042,0.344 -0.023,0.348 0.112,0.038 0.36,-1.906 1.895,-4.54 0.78,-1.293 1.907,-2.742 3.509,-3.93 1.583,-1.199 3.688,-2.042 5.976,-2.198 2.281,-0.146 4.494,0.446 6.106,1.586 1.626,1.133 2.665,2.68 3.227,4.065 0.554,1.403 0.665,2.646 0.628,3.49 -0.034,0.847 -0.162,1.309 -0.109,1.321" /><path
           inkscape:connector-curvature="0"
           id="path608"
           style="fill:#1d2a30;fill-opacity:1;fill-rule:nonzero;stroke:none;stroke-width:0.1"
           d="m -524.08026,266.27867 c -0.036,-0.003 -0.11,0.369 -0.214,1.043 -0.111,0.79 -0.246,1.744 -0.404,2.861 -0.33,2.548 -0.757,5.827 -1.228,9.453 -0.453,3.697 -0.808,7.051 -1.027,9.482 -0.111,1.215 -0.188,2.2 -0.228,2.882 -0.041,0.682 -0.047,1.06 -0.011,1.064 0.036,0.004 0.11,-0.368 0.212,-1.043 0.109,-0.79 0.24,-1.744 0.393,-2.863 0.317,-2.549 0.726,-5.83 1.178,-9.459 0.453,-3.694 0.845,-7.043 1.077,-9.473 0.117,-1.215 0.198,-2.2 0.24,-2.882 0.041,-0.682 0.048,-1.061 0.012,-1.065" /></g></g></g></svg>